HIERARCHY
ROOT HipCenter
{
    OFFSET 0.0 0.0 -0.0
    CHANNELS 6 Xposition Yposition Zposition Zrotation Xrotation Yrotation
    JOINT Spine
    {
        OFFSET 0.0 11.317672729492188 0.0
        CHANNELS 3 Zrotation Xrotation Yrotation
        JOINT ShoulderCenter
        {
            OFFSET 0.0 32.617279052734375 0.0
            CHANNELS 3 Zrotation Xrotation Yrotation
            JOINT LeftShoulder
            {
                OFFSET 18.428611755371094 0.0 0.0
                CHANNELS 3 Zrotation Xrotation Yrotation
                JOINT LeftElbow
                {
                    OFFSET 32.48215866088867 0.0 0.0
                    CHANNELS 3 Zrotation Xrotation Yrotation
                    JOINT LeftWrist
                    {
                        OFFSET 30.971668243408203 0.0 0.0
                        CHANNELS 3 Zrotation Xrotation Yrotation
                        JOINT LeftHand
                        {
                            OFFSET 3.3905882835388184 0.0 0.0
                            CHANNELS 3 Zrotation Xrotation Yrotation
                            End Site
                            {
                                OFFSET 1.356235384941101 0.0 0.0
                            }
                        }
                    }
                }
            }
            JOINT RightShoulder
            {
                OFFSET -18.428611755371094 0.0 0.0
                CHANNELS 3 Zrotation Xrotation Yrotation
                JOINT RightElbow
                {
                    OFFSET -32.48215866088867 0.0 0.0
                    CHANNELS 3 Zrotation Xrotation Yrotation
                    JOINT RightWrist
                    {
                        OFFSET -30.971668243408203 0.0 0.0
                        CHANNELS 3 Zrotation Xrotation Yrotation
                        JOINT RightHand
                        {
                            OFFSET -3.3905882835388184 0.0 0.0
                            CHANNELS 3 Zrotation Xrotation Yrotation
                            End Site
                            {
                                OFFSET -1.356235384941101 0.0 0.0
                            }
                        }
                    }
                }
            }
            End Site
            {
                OFFSET 0.0 13.046911239624023 0.0
            }
        }
    }
    JOINT LeftHip
    {
        OFFSET 14.510774612426758 0.0 0.0
        CHANNELS 3 Zrotation Xrotation Yrotation
        JOINT LeftKnee
        {
            OFFSET 0.0 -42.42488098144531 0.0
            CHANNELS 3 Zrotation Xrotation Yrotation
            JOINT LeftAnkle
            {
                OFFSET 0.0 -46.09623718261719 0.0
                CHANNELS 3 Zrotation Xrotation Yrotation
                JOINT LeftFoot
                {
                    OFFSET 0.0 -13.58619499206543 0.0
                    CHANNELS 3 Zrotation Xrotation Yrotation
                    End Site
                    {
                        OFFSET 0.0 0.0 5.434478282928467
                    }
                }
            }
        }
    }
    JOINT RightHip
    {
        OFFSET -14.510774612426758 0.0 0.0
        CHANNELS 3 Zrotation Xrotation Yrotation
        JOINT RightKnee
        {
            OFFSET 0.0 -42.42488098144531 0.0
            CHANNELS 3 Zrotation Xrotation Yrotation
            JOINT RightAnkle
            {
                OFFSET 0.0 -46.09623718261719 0.0
                CHANNELS 3 Zrotation Xrotation Yrotation
                JOINT RightFoot
                {
                    OFFSET 0.0 -13.58619499206543 0.0
                    CHANNELS 3 Zrotation Xrotation Yrotation
                    End Site
                    {
                        OFFSET 0.0 0.0 5.434478282928467
                    }
                }
            }
        }
    }
}
MOTION
Frames: 4
Frame Time: 0.03333333333333333
21.899999618530273 5.400000095367432 3.9000000953674316 6.061783354238625 0.504193700100941 -76.52038514803053 -3.7851737193905666 0.8148403263593271 0.0910832001078035 -4.6889270242009764e-08 -7.225999741721255e-08 8.63886992023929 103.04397539623777 20.144451488276978 -179.69348737332368 3.8541700638289105e-06 -2.9927543557517435e-06 25.009973272836227 -179.99998933108017 -80.73456989178683 -151.67218158589557 -3.975693351829395e-15 5.9635400277440935e-15 -3.975693351829395e-15 -104.22095222419331 4.9597775142417415 -173.8930813468042 9.686882591672511e-07 -2.5257671944652843e-06 -34.753657651864714 -4.866192786728729e-06 -29.306908510523613 -33.93002366676766 0.0 0.0 0.0 -3.72022602542826 -10.010346207116179 -11.587018094104593 -1.336347827173677 21.581249750217776 -19.29436092712431 93.88807373195925 -51.22623354356532 140.85187553867053 0.0 0.0 0.0 0.9405251803664131 -13.085851691502432 7.815856910804315 -6.899500524274816 25.9025388741992 36.38226142279076 -86.45607094479409 -56.20938961099087 -142.36907167717172 -7.95138670365879e-16 -4.965644585306429e-32 7.156248033292912e-15
21.69999885559082 5.400000095367432 4.199999809265137 6.115498851005592 0.5086468369853555 -76.79302792192183 -4.1824227438026425 1.3688227739282812 0.1709940652413158 -1.464764777201077e-07 -7.226868776109549e-08 8.256061864034507 106.66801264547516 20.062060920948877 -178.3316511465967 2.043752420429912e-06 1.55063911197221e-06 25.62701556075262 -179.99999754210765 -80.22918856641199 -150.72972770481914 -6.212020862233433e-15 -2.3976907991117194e-31 4.4229588539102034e-15 -107.14578385008511 4.3409574353126645 -175.63466278580944 -1.3331718138440575e-06 -6.353276934678139e-08 -36.1676126727773 2.1284021126440727e-06 -30.07927740582003 -33.40435080959206 0.0 0.0 -3.1805546814635168e-15 -3.6490279689400524 -9.95182473682264 -11.44170053951608 -1.7976649933925748 21.607308410161302 -19.031431215730652 94.33211744416509 -51.19939091234795 140.89658215113081 6.3611093629270335e-15 1.590277340731758e-15 -6.3611093629270335e-15 0.8272960606818047 -13.236751902759133 7.2706562342004375 -7.28922763647434 26.217937209941336 37.66588085431082 -86.40679130421871 -55.92556287471433 -142.84132417647757 7.951386703658792e-16 1.5902773407317584e-15 -6.3611093629270335e-15
21.5 5.299999713897705 4.400000095367432 6.115506628212447 1.0172084120991225 -76.51258993028286 -3.9458211794637084 1.711627129007022 0.21090362068999538 -5.238671737772231e-07 5.603722666418143e-07 7.741680262140894 111.05626049211862 20.36898614781711 -175.72149576852183 9.197194517302727e-06 6.933174761236558e-07 24.992662313321706 -179.99999723865622 -75.14548511457393 -152.09866875890805 1.0933156717530846e-15 -6.361109362927035e-15 9.044702375411877e-15 -110.94239321996535 4.955050627387974 -177.65026486598674 8.41366224162254e-07 -3.169711935329848e-06 -37.35248260922234 -6.789634186877416e-07 -26.29907596907298 -33.05383434523635 1.5902773407317584e-15 8.827812596100317e-32 6.3611093629270335e-15 -3.2306931603341287 -10.172112728038167 -11.027971451705719 -1.517483670107514 21.90688743747576 -19.599811283583637 94.39818873426486 -51.231426329503904 141.30971080048826 6.361109362927033e-15 7.95138670365879e-15 -4.413906298050159e-31 1.5576367009899863 -13.271810498700258 6.982277263594346 -7.981024191080869 26.412370902548695 37.69113857704012 -87.57184404839596 -56.12964497169 -143.68331159348193 2.3854160110976376e-15 0.0 0.0
21.100000381469727 5.200000286102295 4.699999809265137 6.061793017508464 1.5122714633327792 -76.5424052444164 -3.8755613183458526 1.3901414380511794 0.17396066147624178 -8.093595838569815e-07 1.0216042116039834e-06 7.271274562794186 115.76877624224537 23.543210776302185 -172.9460563042117 -6.911318661918172e-07 -3.40014037217839e-07 24.484473019293038 179.99999928635836 -75.57746915066038 -154.13931593149036 1.8387581752210955e-15 4.9696166897867406e-17 -2.8326815131784447e-15 -115.98199124846015 3.7568840043584673 -179.66901986942082 -2.838537676402907e-07 -6.962907267093435e-07 -39.022723975093285 -3.3094528913961723e-07 -35.870906307958585 -34.31333265095547 8.827812596100317e-32 6.3611093629270335e-15 -1.5902773407317584e-15 -2.837347483996193 -10.084623083294199 -10.544201208675574 -1.4490926756172773 22.035181108378545 -19.80874475172764 95.10544656803842 -51.57493969044046 141.96700719284368 -6.3611093629270335e-15 -1.5902773407317584e-15 -8.827812596100317e-32 1.8949808154761467 -13.452353283388986 6.251795502961118 -8.31945566627008 26.84999318888272 38.78199041073858 -87.70131088131463 -55.96781440664349 -143.99688213629105 0.0 0.0 1.5902773407317584e-15
